<?xml version="1.0" standalone="no"?>
<!DOCTYPE svg PUBLIC "-//W3C//DTD SVG 20010904//EN"
 "http://www.w3.org/TR/2001/REC-SVG-20010904/DTD/svg10.dtd">
<svg version="1.0" xmlns="http://www.w3.org/2000/svg"
 width="818.000000pt" height="818.000000pt" viewBox="0 0 818.000000 818.000000"
 preserveAspectRatio="xMidYMid meet">
<metadata>
Created by potrace 1.11, written by Peter Selinger 2001-2013
</metadata>
<g transform="translate(0.000000,818.000000) scale(0.100000,-0.100000)"
fill="#000000" stroke="none">
<path d="M6579 8166 c-17 -8 -27 -31 -45 -101 -28 -110 -113 -401 -203 -690
-17 -55 -33 -108 -36 -118 -5 -21 -52 -179 -66 -222 -6 -16 -28 -86 -49 -155
-21 -69 -77 -251 -125 -405 -112 -363 -121 -390 -175 -580 -5 -16 -20 -66 -34
-110 -13 -44 -50 -163 -81 -265 -80 -261 -135 -431 -148 -459 -16 -32 -35 -37
-162 -45 -60 -4 -119 -9 -130 -11 -32 -7 -252 -29 -395 -40 -47 -3 -103 -8
-125 -9 -22 -2 -89 -7 -150 -11 -60 -4 -118 -9 -128 -11 -47 -9 -197 -15 -216
-9 -35 11 -24 37 52 116 39 42 96 103 125 136 29 33 55 63 58 66 5 5 31 112
49 207 3 14 9 43 15 65 5 22 19 83 30 135 12 52 29 124 37 159 8 36 16 72 18
80 2 9 11 49 19 88 9 40 18 87 21 105 4 18 18 80 32 138 41 171 42 177 24 202
-14 21 -36 47 -101 118 -14 15 -34 38 -45 51 -11 13 -56 67 -100 119 -44 52
-85 100 -91 105 -8 8 -125 148 -166 200 -24 30 -150 175 -178 204 -8 9 -43 50
-76 91 -34 42 -68 81 -76 87 -13 11 -105 29 -193 39 -115 11 -150 17 -260 40
-66 14 -136 29 -155 34 -19 4 -62 11 -95 15 -33 3 -73 10 -90 15 -28 8 -124
24 -205 34 -19 2 -39 5 -45 7 -21 6 -101 -14 -120 -31 -11 -9 -65 -47 -120
-83 -55 -36 -112 -75 -127 -86 -14 -12 -31 -21 -37 -21 -6 0 -11 -4 -11 -9 0
-5 -10 -13 -22 -18 -13 -4 -57 -30 -98 -57 -41 -28 -113 -75 -160 -105 -47
-30 -151 -99 -233 -153 -81 -53 -171 -109 -200 -123 -38 -19 -59 -37 -72 -63
-11 -20 -58 -98 -106 -173 -47 -75 -89 -142 -92 -150 -4 -8 -38 -61 -76 -119
-38 -58 -133 -211 -212 -340 -156 -257 -214 -349 -228 -366 -5 -6 -37 -60 -72
-120 -35 -60 -66 -111 -69 -114 -4 -3 -35 -52 -69 -110 -34 -58 -80 -134 -103
-170 -165 -266 -181 -300 -203 -421 -10 -52 -24 -121 -32 -154 -8 -33 -17 -71
-19 -85 -3 -14 -14 -61 -24 -105 -16 -64 -64 -294 -95 -455 -3 -14 -7 -34 -10
-45 -2 -11 -5 -24 -6 -30 -1 -5 -5 -20 -10 -33 -5 -13 -11 -37 -14 -55 -3 -18
-19 -92 -36 -166 -16 -73 -29 -150 -27 -170 3 -31 9 -39 41 -54 35 -16 230
-81 337 -112 62 -18 407 -139 453 -159 31 -14 45 -15 80 -5 23 6 51 16 62 23
24 15 239 108 375 160 52 21 123 51 158 67 35 16 68 26 74 23 13 -8 6 -69 -47
-399 -13 -82 -26 -166 -29 -185 -3 -29 -43 -269 -62 -370 -27 -152 -30 -301
-7 -357 13 -33 74 -74 213 -143 36 -18 72 -38 80 -45 17 -14 117 -55 399 -167
113 -44 219 -88 237 -97 28 -15 107 -21 119 -9 18 18 159 238 175 272 27 61
67 69 142 26 29 -16 91 -51 138 -77 47 -25 159 -89 250 -141 91 -52 185 -106
210 -119 25 -14 71 -41 103 -59 32 -19 60 -34 62 -34 3 0 26 -13 52 -29 53
-33 180 -82 353 -137 63 -20 174 -57 245 -81 255 -87 491 -162 527 -168 26 -5
41 -3 51 6 7 8 75 106 150 219 75 113 146 216 156 230 34 43 40 14 20 -100
-10 -58 -20 -124 -24 -147 -3 -24 -7 -48 -10 -55 -2 -7 -6 -29 -9 -48 -3 -19
-13 -73 -21 -120 -8 -47 -18 -101 -21 -120 -3 -19 -11 -62 -18 -95 -16 -78 -6
-114 53 -190 26 -33 61 -81 79 -106 26 -38 43 -51 99 -74 37 -15 77 -31 88
-36 11 -4 49 -18 85 -30 36 -13 76 -29 90 -36 14 -7 29 -13 33 -13 5 0 23 -6
40 -14 18 -8 66 -28 107 -44 116 -46 225 -90 345 -140 61 -25 169 -69 240 -99
72 -30 148 -56 170 -59 l40 -5 52 113 c65 141 94 205 128 288 15 36 44 99 65
141 21 41 41 86 45 100 7 22 145 322 257 559 28 58 75 159 105 225 30 66 70
152 88 190 18 39 54 114 79 168 25 54 46 100 46 102 0 3 27 62 59 132 117 254
131 285 131 290 0 2 15 37 34 76 19 40 48 106 66 147 18 41 38 82 45 90 7 8
13 44 14 80 2 35 4 67 6 70 3 5 9 58 20 190 8 89 18 185 21 202 1 10 6 60 10
113 8 107 4 117 -54 136 -74 24 -876 342 -947 375 -115 54 -226 91 -267 89
l-44 -3 -22 71 c-18 63 -26 119 -23 165 1 7 21 31 45 54 55 49 52 36 71 303 3
44 8 96 10 115 2 19 7 80 11 135 3 55 8 120 9 145 2 25 6 90 10 145 3 55 8
123 10 150 5 67 15 197 20 270 11 159 15 216 20 293 3 46 7 98 10 115 2 18 6
80 10 138 3 58 7 114 9 125 2 10 7 75 10 144 4 69 9 154 12 190 3 36 7 88 9
115 1 28 5 84 9 125 3 41 8 109 11 150 5 89 15 211 20 260 3 19 7 89 10 155 4
66 8 130 10 142 2 12 6 68 10 125 3 57 8 114 11 128 3 13 7 66 9 117 5 98 3
104 -91 263 -9 14 -24 43 -34 65 -10 22 -29 50 -42 62 -22 20 -34 23 -165 37
-18 2 -42 -2 -54 -8z"/>
</g>
</svg>
